<?xml version="1.0" encoding="utf-8"?>
<!-- Generator: Adobe Illustrator 17.0.0, SVG Export Plug-In . SVG Version: 6.00 Build 0)  -->
<!DOCTYPE svg PUBLIC "-//W3C//DTD SVG 1.1//EN" "http://www.w3.org/Graphics/SVG/1.1/DTD/svg11.dtd">
<svg version="1.1" id="图层_1" xmlns="http://www.w3.org/2000/svg" xmlns:xlink="http://www.w3.org/1999/xlink" x="0px" y="0px"
	 width="60px" height="60px" viewBox="0 0 60 60" enable-background="new 0 0 60 60" xml:space="preserve">
<linearGradient id="SVGID_1_" gradientUnits="userSpaceOnUse" x1="-61.3125" y1="-399.6667" x2="-0.5615" y2="-399.6667" gradientTransform="matrix(4.489700e-011 1 -1 4.489700e-011 -369.6667 61.3333)">
	<stop  offset="0" style="stop-color:#DEBB19"/>
	<stop  offset="0.6505" style="stop-color:#EA5E42"/>
	<stop  offset="1" style="stop-color:#E73828"/>
</linearGradient>
<circle fill="url(#SVGID_1_)" cx="30" cy="30" r="29.979"/>
<path fill="#FFFFFF" d="M42.34,19.915c2.293,2.744,3.607,6.273,3.607,10.115c0,8.762-7.135,15.917-15.917,15.917
	c-8.841,0-15.976-7.135-15.976-15.917c0-8.841,7.135-15.976,15.976-15.976c3.92,0,7.469,1.411,10.232,3.724
	c2.039,0.294,2.999-0.294,3.607-2.862l2.078,0.706C45.182,18.15,43.967,19.523,42.34,19.915L42.34,19.915z M20.954,26.285
	c-2,0-3.666,1.666-3.666,3.724c0,2,1.666,3.724,3.666,3.724c2.078,0,3.724-1.725,3.724-3.724
	C24.678,27.952,23.012,26.285,20.954,26.285L20.954,26.285z M30.029,17.268c-2.078,0-3.724,1.666-3.724,3.666
	c0,2.078,1.666,3.724,3.724,3.724c1.999,0,3.724-1.666,3.724-3.724C33.774,18.915,32.048,17.268,30.029,17.268L30.029,17.268z
	 M27.893,30.01c0,1.176,0.96,2.097,2.137,2.097c1.176,0,2.097-0.921,2.097-2.097c0-1.176-0.921-2.137-2.097-2.137
	C28.853,27.873,27.893,28.834,27.893,30.01L27.893,30.01z M30.029,35.303c-2.078,0-3.724,1.686-3.724,3.724
	c0,2.078,1.666,3.724,3.724,3.724c1.999,0,3.724-1.666,3.724-3.724C33.774,37.008,32.048,35.303,30.029,35.303L30.029,35.303z
	 M35.322,30.01c0,2,1.686,3.724,3.724,3.724c2.078,0,3.724-1.725,3.724-3.724c0-2.078-1.666-3.724-3.724-3.724
	C37.027,26.285,35.322,27.952,35.322,30.01L35.322,30.01z M35.322,30.01"/>
</svg>
