<?xml version="1.0" standalone="no"?>
<!DOCTYPE svg PUBLIC "-//W3C//DTD SVG 1.1//EN" "http://www.w3.org/Graphics/SVG/1.1/DTD/svg11.dtd" >
<svg xmlns="http://www.w3.org/2000/svg">
<metadata>Generated by IcoMoon</metadata>
<defs>
<font id="icomoon" horiz-adv-x="1024">
<font-face units-per-em="1024" ascent="960" descent="-64" />
<missing-glyph horiz-adv-x="1024" />
<glyph unicode="&#x20;" horiz-adv-x="512" d="" />
<glyph unicode="&#xe900;" glyph-name="add" d="M513.638-30.822c-128.614 0-249.651 49.766-340.582 140.493-91.136 90.522-141.107 210.944-141.107 339.149 0 128 49.971 248.627 141.107 339.149 90.931 90.522 211.968 140.288 340.582 140.288s249.651-49.766 340.582-140.288c91.136-90.522 141.107-210.944 141.107-339.149s-50.176-248.627-141.107-339.149c-90.931-90.726-211.968-140.493-340.582-140.493zM513.638 859.443c-110.387 0-214.016-42.803-292.045-120.422s-120.832-180.634-120.832-290.406c0-109.773 43.008-212.787 120.832-290.406 78.029-77.619 181.658-120.422 292.045-120.422s214.016 42.803 292.045 120.422c78.029 77.619 120.832 180.634 120.832 290.406s-43.008 212.787-120.832 290.406c-78.029 77.824-181.658 120.422-292.045 120.422zM754.483 483.226h-206.438v206.438c0 19.046-15.36 34.406-34.406 34.406s-34.406-15.36-34.406-34.406v-206.438h-206.438c-19.046 0-34.406-15.36-34.406-34.406s15.36-34.406 34.406-34.406h206.438v-206.438c0-19.046 15.36-34.406 34.406-34.406s34.406 15.36 34.406 34.406v206.438h206.438c19.046 0 34.406 15.36 34.406 34.406 0 18.842-15.36 34.406-34.406 34.406z" />
<glyph unicode="&#xe901;" glyph-name="add-solid" d="M513.638-30.822c-128.614 0-249.651 49.766-340.582 140.493-91.136 90.522-141.107 210.944-141.107 339.149 0 128 49.971 248.627 141.107 339.149 90.931 90.522 211.968 140.288 340.582 140.288s249.651-49.766 340.582-140.288c91.136-90.522 141.107-210.944 141.107-339.149s-50.176-248.627-141.107-339.149c-90.931-90.726-211.968-140.493-340.582-140.493zM513.638 859.443c-110.387 0-214.016-42.803-292.045-120.422s-120.832-180.634-120.832-290.406c0-109.773 43.008-212.787 120.832-290.406 78.029-77.619 181.658-120.422 292.045-120.422s214.016 42.803 292.045 120.422c78.029 77.619 120.832 180.634 120.832 290.406s-43.008 212.787-120.832 290.406c-78.029 77.824-181.658 120.422-292.045 120.422zM754.483 483.226h-206.438v206.438c0 19.046-15.36 34.406-34.406 34.406s-34.406-15.36-34.406-34.406v-206.438h-206.438c-19.046 0-34.406-15.36-34.406-34.406s15.36-34.406 34.406-34.406h206.438v-206.438c0-19.046 15.36-34.406 34.406-34.406s34.406 15.36 34.406 34.406v206.438h206.438c19.046 0 34.406 15.36 34.406 34.406 0 18.842-15.36 34.406-34.406 34.406z" />
<glyph unicode="&#xe902;" glyph-name="back" d="M640 102.4c-12.8 0-21.333 4.267-29.867 12.8l-302.933 302.933c-17.067 17.067-17.067 42.667 0 59.733l302.933 302.933c17.067 17.067 42.667 17.067 59.733 0s17.067-42.667 0-59.733l-273.067-273.067 273.067-273.067c17.067-17.067 17.067-42.667 0-59.733-8.533-8.533-17.067-12.8-29.867-12.8z" />
<glyph unicode="&#xe903;" glyph-name="collect" d="M505.6 36.2c-5.4 0-10.6 2.2-14.4 6.2l-366.8 381.6c-91.6 95.4-91.6 250.6 0 346 44.6 46.4 103.8 72 166.8 72 72.6 0 178.4-76.4 215-104.8 35.8 28 138.4 103.4 209.2 104.8 64.8 1 125.6-24.4 171.2-72 91.6-95.4 91.6-250.6 0-346l-366.6-381.8c-3.8-3.8-9-6-14.4-6zM291.4 802c-52.2 0-101.2-21.4-138.2-59.8-76.8-80.2-76.8-210.4 0-290.6l352.2-366.8 352.2 366.8c76.8 80 76.8 210.4 0 290.6-37.6 39.6-88 60.8-141.4 59.8-59-1-162.2-76.6-197-105.6-7.4-6.2-18.2-6.2-25.6 0-35.8 29.4-141.6 105.6-202.2 105.6z" />
<glyph unicode="&#xe904;" glyph-name="coupon" d="M698.88 532.48c11.264 0 20.48 9.216 20.48 20.48s-9.216 20.48-20.48 20.48h-74.24l72.192 108.032c6.144 9.728 3.584 22.528-5.632 28.672-9.728 6.144-22.528 3.584-28.672-5.632l-87.552-131.072h-56.832c-2.048 0.512-4.096 1.024-6.144 1.024s-4.096-0.512-6.144-1.024h-57.344l-87.040 131.072c-6.144 9.728-18.944 12.288-28.672 5.632-9.728-6.144-12.288-18.944-5.632-28.672l72.192-108.032h-74.24c-11.264 0-20.48-9.216-20.48-20.48s9.216-20.48 20.48-20.48h166.4v-122.88h-166.4c-11.264 0-20.48-9.216-20.48-20.48s9.216-20.48 20.48-20.48h166.4v-129.024c0-11.264 9.216-20.48 20.48-20.48s20.48 9.216 20.48 20.48v129.024h165.888c11.264 0 20.48 9.216 20.48 20.48s-9.216 20.48-20.48 20.48h-165.888v122.88h166.4zM952.32 568.32c11.264 0 20.48 9.216 20.48 20.48v144.384c0 62.976-51.2 114.176-114.176 114.176h-693.248c-62.976 0-114.176-51.2-114.176-114.176v-144.384c0-11.264 9.216-20.48 20.48-20.48 56.32 0 102.4-46.080 102.4-102.4s-46.080-102.4-102.4-102.4c-11.264 0-20.48-9.216-20.48-20.48v-144.384c0-62.976 51.2-114.176 114.176-114.176h693.248c62.976 0 114.176 51.2 114.176 114.176v144.384c0 11.264-9.216 20.48-20.48 20.48-56.32 0-102.4 46.080-102.4 102.4s45.568 102.4 102.4 102.4zM808.448 465.92c0-72.192 53.76-132.096 122.88-142.336v-125.44c0-40.448-32.768-72.704-72.704-72.704h-693.248c-40.448 0-72.704 32.768-72.704 72.704v125.44c69.632 10.24 122.88 70.144 122.88 142.336s-53.76 132.096-122.88 142.336v124.928c0 40.448 32.768 72.704 72.704 72.704h693.248c39.936 0 72.704-32.768 72.704-72.704v-125.44c-69.12-9.728-122.88-69.632-122.88-141.824z" />
<glyph unicode="&#xe905;" glyph-name="coupon-solid" d="M1004.755 187.855c0-63.691-43.666-115.314-97.524-115.314h-780.19c-53.858 0-97.524 51.631-97.524 115.314v107.252c0 0 126.895 13.028 126.895 142.043s-126.895 143.1-126.895 143.1v124.156c0 63.691 43.666 115.314 97.524 115.314h780.19c53.858 0 97.524-51.631 97.524-115.314v-123.993c0 0-127.911-26.559-127.911-147.383s127.911-140.134 127.911-140.134v-105.041z" />
<glyph unicode="&#xe906;" glyph-name="index" d="M965.632 556.032c-2.048 2.048-207.872 182.784-268.8 241.664-73.216 71.68-135.68 86.528-174.592 86.528h-20.992c-38.912 0-101.376-14.848-174.592-86.528-60.416-59.392-266.24-240.128-268.288-241.664-8.704-7.68-9.216-20.48-2.048-29.184 7.68-8.704 20.48-9.216 29.184-2.048 2.048 2.048 15.872 13.824 36.352 32.256v-412.16c0-73.216 60.928-133.12 135.68-133.12h508.928c74.752 0 135.68 59.904 135.68 133.12v412.16c20.48-17.92 34.304-30.208 36.352-32.256 4.096-3.584 8.704-5.12 13.312-5.12 5.632 0 11.264 2.56 15.36 7.168 8.192 8.704 7.168 21.504-1.536 29.184zM663.552 52.736h-301.568v253.952c0 17.408 14.848 31.744 32.768 31.744h235.52c17.92 0 32.768-14.336 32.768-31.744v-253.952zM861.184 592.896v-448c0-50.688-42.496-92.16-94.72-92.16h-61.952v253.952c0 39.936-33.28 72.704-73.728 72.704h-235.52c-40.96 0-73.728-32.768-73.728-72.704v-253.952h-64c-52.224 0-94.72 41.472-94.72 92.16v448.512c66.048 58.368 155.136 138.24 193.024 175.104 66.56 65.024 120.32 74.752 145.92 74.752h20.992c25.6 0 78.848-9.728 145.92-74.752 37.376-36.864 126.976-116.736 192.512-175.616z" />
<glyph unicode="&#xe907;" glyph-name="index-solid" d="M838.453 665.944l-324.449 209.585-313.062-209.585c-48.755 0-76.994-87.526-76.994-136.28v-382.155c0-48.755 83.138-125.917 131.893-125.917h526.716c48.755 0 120.647 77.171 120.647 125.917v382.155c-0.009 48.755-15.996 136.28-64.75 136.28zM642.816 59.233h-258.489v252.796c0 43.767 27.622 79.254 61.696 79.254h135.097c34.074 0 61.696-35.478 61.696-79.254v-252.796z" />
<glyph unicode="&#xe908;" glyph-name="myinfo" d="M729.442 591.565c0 125.118-100.123 225.242-225.242 225.242s-225.233-100.132-225.233-225.242c0-85.012 45.048-157.665 115.092-195.162-94.897-37.639-157.372-120.176-177.274-225.242-2.467-12.493 4.942-27.462 20.053-30.080h4.942c12.493 0 22.52 7.56 24.995 20.053 22.52 117.559 114.932 202.713 234.967 205.189h4.942c122.634 0 222.757 100.123 222.757 225.242v0zM329.1 591.565c0 97.506 77.595 175.109 175.109 175.109s175.109-77.595 175.109-175.109c0-95.039-77.595-172.634-172.634-175.109h-7.56c-94.897 2.467-170.025 79.919-170.025 175.109zM684.705 363.848c-12.493 7.56-27.462 4.942-35.022-7.56-7.56-12.493-4.942-27.462 7.56-35.022 57.542-39.964 97.506-95.039 110.15-160.14 2.467-12.493 12.493-20.053 24.995-20.053h4.942c12.493 2.467 22.52 14.969 20.053 30.080-15.12 77.612-62.635 145.18-132.678 192.695v0z" />
<glyph unicode="&#xe909;" glyph-name="uniE909" horiz-adv-x="1018" d="M1017.737 444.877c0-281.040-227.828-508.868-508.868-508.868s-508.868 227.828-508.868 508.868c0 281.040 227.828 508.868 508.868 508.868s508.868-227.828 508.868-508.868z" />
<glyph unicode="&#xe90a;" glyph-name="uniE90A" horiz-adv-x="1018" d="M724.13 587.414c0 124.046-99.265 223.311-223.311 223.311s-223.302-99.265-223.302-223.311c0-84.284 44.662-156.313 114.105-193.489-94.075-37.317-156.014-119.146-175.754-223.311-2.446-12.386 4.9-27.227 19.881-29.822h4.9c12.386 0 22.327 7.495 24.781 19.881 22.327 116.551 113.947 200.975 232.952 203.429h4.9c121.583 0 220.847 99.265 220.847 223.311v0zM327.22 587.414c0 96.67 76.929 173.608 173.608 173.608s173.608-76.929 173.608-173.608c0-94.224-76.929-171.153-171.153-173.608h-7.495c-94.083 2.446-168.567 79.243-168.567 173.608zM679.775 361.649c-12.386 7.495-27.227 4.9-34.722-7.495-7.495-12.386-4.9-27.227 7.495-34.722 57.048-39.621 96.67-94.224 109.205-158.767 2.446-12.386 12.386-19.881 24.781-19.881h4.9c12.386 2.446 22.327 14.84 19.881 29.822-14.99 76.947-62.098 143.936-131.541 191.043v0z" />
<glyph unicode="&#xe90b;" glyph-name="search" d="M726.067 552.721c0-173.397-140.561-313.958-313.958-313.958s-313.941 140.578-313.941 313.958 140.561 313.958 313.958 313.958 313.941-140.561 313.941-313.958zM412.126 808.346c-141.175 0-255.625-114.449-255.625-255.625s114.449-255.625 255.625-255.625 255.625 114.449 255.625 255.625-114.449 255.625-255.625 255.625zM821.692 146.142c-15.121-15.121-37.615-17.135-50.244-4.506l-172.783 172.783c-12.629 12.629-10.615 35.123 4.506 50.244v0c15.121 15.121 37.615 17.135 50.244 4.506l172.783-172.8c12.629-12.629 10.615-35.123-4.506-50.227v0z" />
<glyph unicode="&#xe90c;" glyph-name="shop" d="M512.004-64c-282.32 0-512.004 229.684-512.004 511.996s229.684 512.004 512.004 512.004 512.004-229.684 512.004-512.004-229.693-511.996-512.004-511.996zM512.004 915.589c-257.832 0-467.594-209.762-467.594-467.594s209.762-467.594 467.594-467.594 467.594 209.762 467.594 467.594-209.77 467.594-467.594 467.594zM512.004 11.499c-240.689 0-436.506 195.817-436.506 436.497s195.817 436.506 436.506 436.506 436.506-195.817 436.506-436.506-195.825-436.497-436.506-436.497zM512.004 848.973c-221.104 0-400.977-179.873-400.977-400.977s179.873-400.977 400.977-400.977 400.977 179.873 400.977 400.977-179.882 400.977-400.977 400.977zM702.412 470.201h228.325v-44.411h-228.325v44.411zM93.263 470.201h228.334v-44.411h-228.334v44.411zM489.799 251.424h44.411v-228.325h-44.411v228.325zM489.799 866.737h44.411v-228.334h-44.411v228.334zM231.687 759.552l161.455-161.455-31.397-31.397-161.455 161.455 31.397 31.397zM664.785 326.46l161.455-161.455-31.397-31.397-161.455 161.455 31.397 31.397zM788.018 755.869l31.397-31.397-161.449-161.449-31.397 31.397 161.449 161.449zM360.17 328.013l31.397-31.397-161.449-161.449-31.397 31.397 161.449 161.449zM733.055 638.412c0 0-50.673-44.313-23.040-110.672s101.594-57.814 101.594-57.814l-2.523-5.667-82.96-11.254-21.459 21.459-45.015 109.384 58.88 52.6 14.522 1.963zM533.872 740.166c0 0-4.494-67.167 61.962-94.551 66.465-27.384 112.715 30.954 112.715 30.954l2.229-5.791-50.699-66.616h-30.35l-109.18 45.521 4.441 78.829 8.882 11.653zM321.588 669.215c0 0 44.313-50.673 110.672-23.040s57.814 101.594 57.814 101.594l5.667-2.523 11.254-82.96-21.459-21.459-109.384-45.015-52.6 58.88-1.963 14.522zM221.53 469.1c0 0 67.167-4.494 94.551 61.962 27.384 66.465-30.954 112.715-30.954 112.715l5.791 2.229 66.616-50.699v-30.35l-45.521-109.18-78.829 4.441-11.653 8.882zM292.108 257.588c0 0 50.673 44.313 23.040 110.672s-101.594 57.814-101.594 57.814l2.523 5.667 82.96 11.254 21.459-21.459 45.015-109.384-58.88-52.6-14.522-1.963zM490.723 157.282c0 0 4.494 67.167-61.962 94.551s-112.715-30.954-112.715-30.954l-2.229 5.791 50.699 66.616h30.35l109.18-45.521-4.441-78.829-8.882-11.653zM702.412 227.86c0 0-44.313 50.673-110.672 23.040s-57.814-101.594-57.814-101.594l-5.667 2.523-11.254 82.96 21.459 21.459 109.384 45.015 52.6-58.88 1.963-14.522zM803.633 426.11c0 0-67.167 4.494-94.551-61.962s30.954-112.715 30.954-112.715l-5.791-2.229-66.616 50.699v30.35l45.521 109.18 78.829-4.441 11.653-8.882z" />
<glyph unicode="&#xe90d;" glyph-name="uniE90D" d="M1022.304 447.996c0-281.83-228.469-510.299-510.299-510.299s-510.299 228.469-510.299 510.299c0 281.83 228.469 510.299 510.299 510.299s510.299-228.469 510.299-510.299z" />
<glyph unicode="&#xe90e;" glyph-name="uniE90E" d="M702.74 447.685c0-105.159-85.248-190.407-190.407-190.407s-190.407 85.248-190.407 190.407c0 105.159 85.248 190.407 190.407 190.407s190.407-85.248 190.407-190.407z" />
<glyph unicode="&#xe90f;" glyph-name="uniE90F" d="M512.324 11.179c-240.689 0-436.506 195.817-436.506 436.515 0 240.689 195.817 436.506 436.506 436.506s436.506-195.817 436.506-436.506c0-240.698-195.817-436.515-436.506-436.515zM512.324 848.662c-221.095 0-400.977-179.873-400.977-400.977s179.873-400.986 400.977-400.986 400.977 179.882 400.977 400.986-179.873 400.977-400.977 400.977z" />
<glyph unicode="&#xe910;" glyph-name="uniE910" d="M702.74 469.89h228.325v-44.411h-228.325v44.411z" />
<glyph unicode="&#xe911;" glyph-name="uniE911" d="M93.592 469.89h228.325v-44.411h-228.325v44.411z" />
<glyph unicode="&#xe912;" glyph-name="uniE912" d="M490.128 251.113h44.411v-228.325h-44.411v228.325z" />
<glyph unicode="&#xe913;" glyph-name="uniE913" d="M490.128 866.426h44.411v-228.334h-44.411v228.334z" />
<glyph unicode="&#xe914;" glyph-name="uniE914" d="M232.017 759.241l161.455-161.455-31.397-31.397-161.455 161.455 31.397 31.397z" />
<glyph unicode="&#xe915;" glyph-name="uniE915" d="M665.141 326.146l161.455-161.455-31.397-31.397-161.455 161.455 31.397 31.397z" />
<glyph unicode="&#xe916;" glyph-name="uniE916" d="M788.348 755.559l31.397-31.397-161.449-161.449-31.397 31.397 161.449 161.449z" />
<glyph unicode="&#xe917;" glyph-name="uniE917" d="M360.5 327.702l31.397-31.397-161.449-161.449-31.397 31.397 161.449 161.449z" />
<glyph unicode="&#xe918;" glyph-name="uniE918" d="M733.384 638.092c0 0-50.673-44.313-23.040-110.672s101.594-57.814 101.594-57.814l-2.523-5.667-82.96-11.254-21.459 21.459-45.015 109.384 58.88 52.6 14.522 1.963z" />
<glyph unicode="&#xe919;" glyph-name="uniE919" d="M534.201 739.855c0 0-4.494-67.167 61.962-94.551 66.465-27.384 112.715 30.954 112.715 30.954l2.229-5.791-50.699-66.616h-30.35l-109.18 45.521 4.441 78.829 8.882 11.653z" />
<glyph unicode="&#xe91a;" glyph-name="uniE91A" d="M321.917 668.904c0 0 44.313-50.673 110.672-23.040s57.814 101.594 57.814 101.594l5.667-2.523 11.254-82.96-21.459-21.459-109.384-45.015-52.6 58.88-1.963 14.522z" />
<glyph unicode="&#xe91b;" glyph-name="uniE91B" d="M221.859 468.78c0 0 67.167-4.494 94.551 61.962 27.384 66.465-30.954 112.715-30.954 112.715l5.791 2.229 66.616-50.699v-30.35l-45.521-109.18-78.829 4.441-11.653 8.882z" />
<glyph unicode="&#xe91c;" glyph-name="uniE91C" d="M292.437 257.277c0 0 50.673 44.313 23.040 110.672s-101.594 57.814-101.594 57.814l2.523 5.667 82.96 11.254 21.459-21.459 45.015-109.384-58.88-52.6-14.522-1.963z" />
<glyph unicode="&#xe91d;" glyph-name="uniE91D" d="M803.962 425.799c0 0-67.167 4.494-94.551-61.962s30.954-112.715 30.954-112.715l-5.791-2.229-66.616 50.699v30.35l45.521 109.18 78.829-4.441 11.653-8.882z" />
<glyph unicode="&#xe91e;" glyph-name="uniE91E" d="M491.051 156.971c0 0 4.494 67.167-61.962 94.551-66.465 27.384-112.715-30.954-112.715-30.954l-2.229 5.791 50.699 66.616h30.35l109.18-45.521-4.441-78.829-8.882-11.653z" />
<glyph unicode="&#xe91f;" glyph-name="uniE91F" d="M702.74 227.549c0 0-44.313 50.673-110.672 23.040s-57.814-101.594-57.814-101.594l-5.667 2.523-11.254 82.96 21.459 21.459 109.384 45.006 52.6-58.88 1.963-14.513z" />
<glyph unicode="&#xe937;" glyph-name="barcode" d="M0 832h128v-640h-128zM192 832h64v-640h-64zM320 832h64v-640h-64zM512 832h64v-640h-64zM768 832h64v-640h-64zM960 832h64v-640h-64zM640 832h32v-640h-32zM448 832h32v-640h-32zM864 832h32v-640h-32zM0 128h64v-64h-64zM192 128h64v-64h-64zM320 128h64v-64h-64zM640 128h64v-64h-64zM960 128h64v-64h-64zM768 128h128v-64h-128zM448 128h128v-64h-128z" />
<glyph unicode="&#xe942;" glyph-name="phone" d="M704 320c-64-64-64-128-128-128s-128 64-192 128-128 128-128 192 64 64 128 128-128 256-192 256-192-192-192-192c0-128 131.5-387.5 256-512s384-256 512-256c0 0 192 128 192 192s-192 256-256 192z" />
<glyph unicode="&#xe947;" glyph-name="location" d="M512 960c-176.732 0-320-143.268-320-320 0-320 320-704 320-704s320 384 320 704c0 176.732-143.27 320-320 320zM512 448c-106.040 0-192 85.96-192 192s85.96 192 192 192 192-85.96 192-192-85.96-192-192-192z" />
<glyph unicode="&#xe94e;" glyph-name="clock" d="M658.744 210.744l-210.744 210.746v282.51h128v-229.49l173.256-173.254zM512 960c-282.77 0-512-229.23-512-512s229.23-512 512-512 512 229.23 512 512-229.23 512-512 512zM512 64c-212.078 0-384 171.922-384 384s171.922 384 384 384c212.078 0 384-171.922 384-384s-171.922-384-384-384z" />
<glyph unicode="&#xe981;" glyph-name="spinner8" d="M512-64c-136.76 0-265.334 53.258-362.040 149.96-96.702 96.706-149.96 225.28-149.96 362.040 0 96.838 27.182 191.134 78.606 272.692 50 79.296 120.664 143.372 204.356 185.3l43-85.832c-68.038-34.084-125.492-86.186-166.15-150.67-41.746-66.208-63.812-142.798-63.812-221.49 0-229.382 186.618-416 416-416s416 186.618 416 416c0 78.692-22.066 155.282-63.81 221.49-40.66 64.484-98.114 116.584-166.15 150.67l43 85.832c83.692-41.928 154.358-106.004 204.356-185.3 51.422-81.558 78.604-175.854 78.604-272.692 0-136.76-53.258-265.334-149.96-362.040-96.706-96.702-225.28-149.96-362.040-149.96z" />
<glyph unicode="&#xe986;" glyph-name="icon-money" d="M512 12.8c-240.64 0-435.2 194.56-435.2 435.2s194.56 435.2 435.2 435.2 435.2-194.56 435.2-435.2-194.56-435.2-435.2-435.2zM512 960c-281.6 0-512-230.4-512-512s230.4-512 512-512 512 230.4 512 512-230.4 512-512 512zM686.080 704h-87.040l-76.8-138.24c-10.24-25.6-20.48-40.96-30.72-56.32-15.36 35.84-51.2 97.28-97.28 189.44v5.12h-87.040l122.88-215.040h-97.28v-66.56h122.88v-46.080h-122.88v-66.56h122.88v-97.28h76.8v97.28h117.76v66.56h-117.76v46.080h117.76v66.56h-92.16l128 215.040z" />
<glyph unicode="&#xe9da;" glyph-name="collect-solid" d="M755.188 896c-107.63 0-200.258-87.554-243.164-179-42.938 91.444-135.578 179-243.216 179-148.382 0-268.808-120.44-268.808-268.832 0-301.846 304.5-380.994 512.022-679.418 196.154 296.576 511.978 387.206 511.978 679.418 0 148.392-120.43 268.832-268.812 268.832z" />
<glyph unicode="&#xea41;" glyph-name="circle-up" d="M0 448c0-282.77 229.23-512 512-512s512 229.23 512 512-229.23 512-512 512-512-229.23-512-512zM928 448c0-229.75-186.25-416-416-416s-416 186.25-416 416 186.25 416 416 416 416-186.25 416-416zM706.744 290.744l90.512 90.512-285.256 285.254-285.254-285.256 90.508-90.508 194.746 194.744z" />
<glyph unicode="&#xea43;" glyph-name="circle-down" d="M1024 448c0 282.77-229.23 512-512 512s-512-229.23-512-512 229.23-512 512-512 512 229.23 512 512zM96 448c0 229.75 186.25 416 416 416s416-186.25 416-416-186.25-416-416-416-416 186.25-416 416zM317.256 605.256l-90.512-90.512 285.256-285.254 285.254 285.256-90.508 90.508-194.746-194.744z" />
<glyph unicode="&#xea50;" glyph-name="ctrl" d="M736.014 512c-8.908 0-17.77 3.698-24.096 10.928l-199.918 228.478-199.918-228.478c-11.636-13.3-31.856-14.65-45.154-3.010-13.3 11.638-14.648 31.854-3.010 45.154l224 256c6.076 6.944 14.854 10.928 24.082 10.928s18.006-3.984 24.082-10.928l224-256c11.638-13.3 10.292-33.516-3.010-45.154-6.070-5.312-13.582-7.918-21.058-7.918z" />
</font>
</defs>
</svg>
