<?xml version="1.0" standalone="no"?><!DOCTYPE svg PUBLIC "-//W3C//DTD SVG 1.1//EN" "http://www.w3.org/Graphics/SVG/1.1/DTD/svg11.dtd"><svg t="1516691783647" class="icon" style="" viewBox="0 0 1024 1024" version="1.1" xmlns="http://www.w3.org/2000/svg" p-id="1466" xmlns:xlink="http://www.w3.org/1999/xlink" width="200" height="200"><defs><style type="text/css"></style></defs><path d="M513.6384 990.8224c-128.6144 0-249.6512-49.7664-340.5824-140.4928C81.92 759.808 31.9488 639.3856 31.9488 511.1808 31.9488 383.1808 81.92 262.5536 173.056 172.032 263.9872 81.5104 385.024 31.744 513.6384 31.744S763.2896 81.5104 854.2208 172.032c91.136 90.5216 141.1072 210.944 141.1072 339.1488 0 128.2048-50.176 248.6272-141.1072 339.1488-90.9312 90.7264-211.968 140.4928-340.5824 140.4928z m0-890.2656c-110.3872 0-214.016 42.8032-292.0448 120.4224-78.0288 77.6192-120.832 180.6336-120.832 290.4064 0 109.7728 43.008 212.7872 120.832 290.4064 78.0288 77.6192 181.6576 120.4224 292.0448 120.4224 110.3872 0 214.016-42.8032 292.0448-120.4224 78.0288-77.6192 120.832-180.6336 120.832-290.4064 0-109.7728-43.008-212.7872-120.832-290.4064-78.0288-77.824-181.6576-120.4224-292.0448-120.4224z m0 0" p-id="1467"></path><path d="M754.4832 476.7744H548.0448V270.336c0-19.0464-15.36-34.4064-34.4064-34.4064S479.232 251.2896 479.232 270.336v206.4384H272.7936c-19.0464 0-34.4064 15.36-34.4064 34.4064s15.36 34.4064 34.4064 34.4064H479.232v206.4384c0 19.0464 15.36 34.4064 34.4064 34.4064s34.4064-15.36 34.4064-34.4064V545.5872h206.4384c19.0464 0 34.4064-15.36 34.4064-34.4064 0-18.8416-15.36-34.4064-34.4064-34.4064z m0 0" p-id="1468"></path></svg>