<?xml version="1.0" encoding="utf-8"?>
<!-- Generator: Adobe Illustrator 17.0.0, SVG Export Plug-In . SVG Version: 6.00 Build 0)  -->
<!DOCTYPE svg PUBLIC "-//W3C//DTD SVG 1.1//EN" "http://www.w3.org/Graphics/SVG/1.1/DTD/svg11.dtd">
<svg version="1.1" id="图层_1" xmlns="http://www.w3.org/2000/svg" xmlns:xlink="http://www.w3.org/1999/xlink" x="0px" y="0px"
	 width="125.95px" height="98.167px" viewBox="0 0 125.95 98.167" enable-background="new 0 0 125.95 98.167" xml:space="preserve">
<path fill="#E84F47" d="M123.632,81.01c0,7.837-5.373,14.189-12,14.189h-96c-6.627,0-12-6.353-12-14.189V67.813
	c0,0,15.614-1.603,15.614-17.478S3.632,32.727,3.632,32.727V17.45c0-7.837,5.373-14.189,12-14.189h96c6.627,0,12,6.353,12,14.189
	v15.257c0,0-15.739,3.268-15.739,18.135s15.739,17.243,15.739,17.243V81.01z"/>
<g>
	<g id="XMLID_33_">
		
			<line fill="none" stroke="#FFFFFF" stroke-width="6" stroke-linecap="round" stroke-miterlimit="10" x1="39.616" y1="41.535" x2="87.648" y2="41.535"/>
	</g>
	<g id="XMLID_29_">
		
			<line fill="none" stroke="#FFFFFF" stroke-width="6" stroke-linecap="round" stroke-miterlimit="10" x1="45.144" y1="23.086" x2="61.81" y2="39.752"/>
	</g>
	<g id="XMLID_27_">
		
			<line fill="none" stroke="#FFFFFF" stroke-width="6" stroke-linecap="round" stroke-miterlimit="10" x1="81.935" y1="23.086" x2="65.269" y2="39.752"/>
	</g>
	<g id="XMLID_25_">
		
			<line fill="none" stroke="#FFFFFF" stroke-width="6" stroke-linecap="round" stroke-miterlimit="10" x1="63.632" y1="81.201" x2="63.632" y2="41.519"/>
	</g>
	<g id="XMLID_18_">
		
			<line fill="none" stroke="#FFFFFF" stroke-width="6" stroke-linecap="round" stroke-miterlimit="10" x1="39.616" y1="60.201" x2="87.648" y2="60.201"/>
	</g>
</g>
<g>
	<path fill="none" stroke="#DA4E46" stroke-width="5" stroke-miterlimit="10" d="M1.444,67.934c0.046,0,0.091,0.001,0.137,0.001
		c9.756,0,17.665-7.909,17.665-17.665S11.337,32.605,1.581,32.605c-0.089,0-0.178,0.001-0.266,0.002"/>
	<path fill="none" stroke="#DA4E46" stroke-width="5" stroke-miterlimit="10" d="M125.94,32.609
		c-0.131-0.003-0.263-0.004-0.395-0.004c-9.756,0-17.665,7.909-17.665,17.665s7.909,17.665,17.665,17.665
		c0.135,0,0.271-0.002,0.405-0.005"/>
	<path fill="none" stroke="#DA4E46" stroke-width="5" stroke-linejoin="round" stroke-miterlimit="10" d="M3.625,35.135
		c0-9.085,0-13.874,0-13.874c0-9.941,8.059-18,18-18h83.963c9.941,0,18,8.059,18,18c0,0,0,5.841,0,13.875"/>
	<path fill="none" stroke="#DA4E46" stroke-width="5" stroke-linejoin="round" stroke-miterlimit="10" d="M123.588,65.36
		c0,13.647,0,11.839,0,11.839c0,9.941-8.059,18-18,18H21.625c-9.941,0-18-8.059-18-18c0,0,0-2.464,0-11.839"/>
</g>
<path fill="none" stroke="#E84F47" stroke-width="5" stroke-miterlimit="10" d="M1.444,67.934c0.046,0,0.091,0.001,0.137,0.001
	c9.756,0,17.665-7.909,17.665-17.665S11.337,32.605,1.581,32.605c-0.089,0-0.178,0.001-0.266,0.002"/>
<path fill="none" stroke="#E84F47" stroke-width="5" stroke-miterlimit="10" d="M276.775,32.609
	c-0.131-0.003-0.263-0.004-0.395-0.004c-9.756,0-17.665,7.909-17.665,17.665s7.909,17.665,17.665,17.665
	c0.135,0,0.271-0.002,0.405-0.005"/>
<path fill="none" stroke="#E84F47" stroke-width="5" stroke-miterlimit="10" d="M3.625,35.135c0-9.085,0-13.874,0-13.874
	c0-9.941,8.059-18,18-18h83.963c9.941,0,18,8.059,18,18c0,0,0,5.841,0,13.875"/>
<path fill="none" stroke="#E84F47" stroke-width="5" stroke-miterlimit="10" d="M123.588,65.36c0,13.647,0,11.839,0,11.839
	c0,9.941-8.059,18-18,18H21.625c-9.941,0-18-8.059-18-18c0,0,0-2.464,0-11.839"/>
</svg>
