<?xml version="1.0" encoding="utf-8"?>
<!-- Generator: Adobe Illustrator 17.0.0, SVG Export Plug-In . SVG Version: 6.00 Build 0)  -->
<!DOCTYPE svg PUBLIC "-//W3C//DTD SVG 1.1//EN" "http://www.w3.org/Graphics/SVG/1.1/DTD/svg11.dtd">
<svg version="1.1" id="图层_1" xmlns="http://www.w3.org/2000/svg" xmlns:xlink="http://www.w3.org/1999/xlink" x="0px" y="0px"
	 width="60px" height="60px" viewBox="0 0 60 60" enable-background="new 0 0 60 60" xml:space="preserve">
<linearGradient id="SVGID_1_" gradientUnits="userSpaceOnUse" x1="-61.3474" y1="-398.665" x2="-0.5576" y2="-398.665" gradientTransform="matrix(4.489700e-011 1 -1 4.489700e-011 -368.6667 61.3333)">
	<stop  offset="0" style="stop-color:#6DBC61"/>
	<stop  offset="0.2908" style="stop-color:#5DAA75"/>
	<stop  offset="1" style="stop-color:#103D96"/>
</linearGradient>
<circle fill="url(#SVGID_1_)" cx="29.998" cy="29.984" r="29.998"/>
<g>
	<path fill="#FFFFFF" d="M30.053,45.404c-6.464-0.002-13.766-5.146-15.004-11.097v-0.105c0,0-0.428-3.791-0.205-3.791l28.642-0.01
		c0.222,0,1.042,0.196,1.042,0.439v3.467C44.528,34.549,41.277,45.408,30.053,45.404L30.053,45.404z M30.053,45.404"/>
	<path fill="#FFFFFF" d="M18.339,30.986h-0.008c-0.451-0.004-0.814-0.374-0.809-0.825l0.032-3.243h-1.437
		c-0.452,0-0.817-0.366-0.817-0.817c0-0.451,0.366-0.817,0.817-0.817h1.453l0.004-0.413c-0.001-0.928,0.058-1.76,0.177-2.496h-1.635
		c-0.452,0-0.817-0.366-0.817-0.817c0-0.451,0.366-0.817,0.817-0.817h2.058c0.242-0.633,0.558-1.145,0.945-1.533
		c0.711-0.712,1.413-0.748,1.547-0.748c0.452,0,0.817,0.366,0.817,0.817c0,0.438-0.344,0.795-0.777,0.816
		c-0.045,0.008-0.343,0.078-0.668,0.562c-0.381,0.568-0.835,1.762-0.831,4.217l0,0.009l-0.011,1.087
		c0.007,0.043,0.011,0.087,0.011,0.132c0,0.051-0.005,0.1-0.013,0.148l-0.038,3.928C19.152,30.625,18.787,30.986,18.339,30.986
		L18.339,30.986z M22.961,30.817c-0.45,0-0.815-0.364-0.817-0.814l-0.021-5.183c0-2.495,0.445-4.3,1.323-5.369
		c0.775-0.943,1.61-0.991,1.769-0.991c0.451,0,0.817,0.366,0.817,0.818c0,0.438-0.344,0.795-0.777,0.816
		c-0.045,0.008-0.342,0.077-0.665,0.554c-0.38,0.561-0.833,1.741-0.833,4.169l0.021,5.179c0.002,0.452-0.363,0.819-0.814,0.821
		H22.961z M27.49,30.664c-0.452,0-0.817-0.366-0.817-0.817v-4.572c0-2.67,0.439-4.601,1.304-5.742
		c0.775-1.021,1.626-1.073,1.789-1.073c0.452,0,0.817,0.366,0.817,0.818c0,0.435-0.34,0.791-0.769,0.816
		c-0.049,0.01-0.344,0.094-0.67,0.627c-0.004,0.007-0.008,0.013-0.012,0.02h15.414c0.451,0,0.817,0.366,0.817,0.817
		c0,0.452-0.366,0.817-0.817,0.817H28.554c-0.146,0.716-0.247,1.659-0.247,2.899v0.009h16.238c0.451,0,0.817,0.366,0.817,0.817
		c0,0.452-0.366,0.817-0.817,0.817H28.308v2.928C28.308,30.298,27.942,30.664,27.49,30.664L27.49,30.664z M27.49,30.664"/>
	<path fill="#FFFFFF" d="M29.765,46.267c-4.455,0-8.067-1.356-10.735-4.03c-1.099-1.102-2.035-2.43-2.779-3.947
		c-0.59-1.203-1.063-2.527-1.404-3.935c-0.581-2.395-0.584-4.202-0.584-4.278c0.001-0.451,0.367-0.816,0.817-0.816h0.001
		l29.337,0.024c0.448,0,0.813,0.362,0.817,0.811c0.001,0.075,0.009,1.875-0.556,4.26c-0.332,1.403-0.796,2.722-1.378,3.922
		c-0.734,1.513-1.66,2.838-2.752,3.939C37.882,44.903,34.254,46.267,29.765,46.267L29.765,46.267z M15.94,30.896
		c0.105,1.297,0.468,3.95,1.724,6.563c1.005,2.09,2.381,3.75,4.09,4.935c2.141,1.485,4.837,2.238,8.01,2.238
		c4.032,0,7.267-1.198,9.614-3.559c0.961-0.967,1.78-2.138,2.435-3.479c0.53-1.087,0.955-2.287,1.262-3.569
		c0.308-1.286,0.435-2.399,0.487-3.107L15.94,30.896z M15.94,30.896"/>
	<rect x="14.268" y="18.461" fill="none" width="31.132" height="27.848"/>
</g>
</svg>
