<?xml version="1.0" encoding="utf-8"?>
<!-- Generator: Adobe Illustrator 17.0.0, SVG Export Plug-In . SVG Version: 6.00 Build 0)  -->
<!DOCTYPE svg PUBLIC "-//W3C//DTD SVG 1.1//EN" "http://www.w3.org/Graphics/SVG/1.1/DTD/svg11.dtd">
<svg version="1.1" id="图层_1" xmlns="http://www.w3.org/2000/svg" xmlns:xlink="http://www.w3.org/1999/xlink" x="0px" y="0px"
	 width="60px" height="60px" viewBox="0 0 60 60" enable-background="new 0 0 60 60" xml:space="preserve">
<linearGradient id="SVGID_1_" gradientUnits="userSpaceOnUse" x1="-61.3021" y1="-398.651" x2="-0.5405" y2="-398.651" gradientTransform="matrix(4.489700e-011 1 -1 4.489700e-011 -368.6667 61.3333)">
	<stop  offset="0" style="stop-color:#E94A2E"/>
	<stop  offset="1" style="stop-color:#103D96"/>
</linearGradient>
<circle fill="url(#SVGID_1_)" cx="29.984" cy="30.016" r="29.984"/>
<path fill="#FFFFFF" d="M43.945,36.411c2.871,0,2.913-4.466,0.043-4.466C41.095,31.946,41.074,36.411,43.945,36.411L43.945,36.411z
	 M38.118,41.068c2.871,0,2.913-4.466,0.021-4.466C35.269,36.603,35.247,41.068,38.118,41.068L38.118,41.068z M38.118,32.903
	c2.871,0,2.913-4.466,0.021-4.466C35.269,28.437,35.247,32.903,38.118,32.903L38.118,32.903z M39.309,24.865
	c5.189,0,9.399,4.253,9.314,9.484c-0.085,5.103-4.359,9.165-9.463,9.165H20.809c-5.104,0-9.378-4.04-9.463-9.165
	c-0.085-5.21,4.125-9.484,9.314-9.484h8.144v-7.379c0-1.723,1.233-4.274,4.657-4.274c3.424,0,4.657,2.552,4.657,4.274v1.552
	c0,0.447,0.213,1.935,2.339,1.935c2.211,0,2.339-1.616,2.339-1.935v-5.827c0-0.638,0.532-1.17,1.17-1.17
	c0.638,0,1.17,0.532,1.17,1.17v5.827c0,1.723-1.233,4.274-4.657,4.274c-3.424,0-4.657-2.552-4.657-4.274v-1.552
	c0-0.447-0.213-1.935-2.339-1.935c-2.212,0-2.339,1.616-2.339,1.935v7.379H39.309z M26.486,34.179c0-0.638-0.532-1.17-1.17-1.17
	h-2.339c-0.638,0-1.17-0.532-1.17-1.17V29.5c0-0.638-0.532-1.17-1.17-1.17c-0.638,0-1.17,0.532-1.17,1.17v2.339
	c0,0.638-0.532,1.17-1.17,1.17H15.96c-0.638,0-1.17,0.532-1.17,1.17c0,0.638,0.532,1.17,1.17,1.17h2.339
	c0.638,0,1.17,0.532,1.17,1.17v2.339c0,0.638,0.532,1.17,1.17,1.17c0.638,0,1.17-0.532,1.17-1.17v-2.339
	c0-0.638,0.532-1.17,1.17-1.17h2.339C25.976,35.327,26.486,34.816,26.486,34.179L26.486,34.179z M26.486,34.179"/>
</svg>
