<?xml version="1.0" standalone="no"?><!DOCTYPE svg PUBLIC "-//W3C//DTD SVG 1.1//EN" "http://www.w3.org/Graphics/SVG/1.1/DTD/svg11.dtd"><svg class="icon" width="200px" height="200.00px" viewBox="0 0 1024 1024" version="1.1" xmlns="http://www.w3.org/2000/svg"><path fill="#333333" d="M505.6 923.8c-5.4 0-10.6-2.2-14.4-6.2L124.4 536c-91.6-95.4-91.6-250.6 0-346 44.6-46.4 103.8-72 166.8-72 72.6 0 178.4 76.4 215 104.8 35.8-28 138.4-103.4 209.2-104.8 64.8-1 125.6 24.4 171.2 72 91.6 95.4 91.6 250.6 0 346L520 917.8c-3.8 3.8-9 6-14.4 6zM291.4 158c-52.2 0-101.2 21.4-138.2 59.8-76.8 80.2-76.8 210.4 0 290.6l352.2 366.8 352.2-366.8c76.8-80 76.8-210.4 0-290.6-37.6-39.6-88-60.8-141.4-59.8-59 1-162.2 76.6-197 105.6-7.4 6.2-18.2 6.2-25.6 0C457.8 234.2 352 158 291.4 158z m580.8 364z"  /></svg>