<?xml version="1.0" encoding="utf-8"?>
<!-- Generator: Adobe Illustrator 17.0.0, SVG Export Plug-In . SVG Version: 6.00 Build 0)  -->
<!DOCTYPE svg PUBLIC "-//W3C//DTD SVG 1.1//EN" "http://www.w3.org/Graphics/SVG/1.1/DTD/svg11.dtd">
<svg version="1.1" id="图层_1" xmlns="http://www.w3.org/2000/svg" xmlns:xlink="http://www.w3.org/1999/xlink" x="0px" y="0px"
	 width="60px" height="60px" viewBox="0 0 60 60" enable-background="new 0 0 60 60" xml:space="preserve">
<path fill="#FFFFFF" d="M43.349,18.625c2.287,2.737,3.597,6.256,3.597,10.087c0,8.738-7.116,15.873-15.873,15.873
	c-8.816,0-15.932-7.116-15.932-15.873c0-8.816,7.116-15.932,15.932-15.932c3.91,0,7.448,1.408,10.204,3.714
	c2.033,0.293,2.991-0.293,3.597-2.854l2.072,0.704C46.184,16.866,44.972,18.234,43.349,18.625L43.349,18.625z M22.022,24.978
	c-1.994,0-3.655,1.662-3.655,3.714c0,1.994,1.661,3.714,3.655,3.714c2.072,0,3.714-1.72,3.714-3.714
	C25.736,26.64,24.075,24.978,22.022,24.978L22.022,24.978z M31.073,15.986c-2.072,0-3.714,1.662-3.714,3.655
	c0,2.072,1.662,3.714,3.714,3.714c1.994,0,3.714-1.662,3.714-3.714C34.807,17.628,33.086,15.986,31.073,15.986L31.073,15.986z
	 M28.942,28.692c0,1.173,0.958,2.092,2.131,2.092c1.173,0,2.092-0.919,2.092-2.092c0-1.173-0.919-2.131-2.092-2.131
	C29.9,26.562,28.942,27.519,28.942,28.692L28.942,28.692z M31.073,33.97c-2.072,0-3.714,1.681-3.714,3.714
	c0,2.072,1.662,3.714,3.714,3.714c1.994,0,3.714-1.662,3.714-3.714C34.807,35.671,33.086,33.97,31.073,33.97L31.073,33.97z
	 M36.351,28.692c0,1.994,1.681,3.714,3.714,3.714c2.072,0,3.714-1.72,3.714-3.714c0-2.072-1.662-3.714-3.714-3.714
	C38.052,24.978,36.351,26.64,36.351,28.692L36.351,28.692z M36.351,28.692"/>
<linearGradient id="SVGID_1_" gradientUnits="userSpaceOnUse" x1="-61.0106" y1="-398.9501" x2="-0.5444" y2="-398.9501" gradientTransform="matrix(4.489700e-011 1 -1 4.489700e-011 -368.6667 61.3333)">
	<stop  offset="0" style="stop-color:#F08531"/>
	<stop  offset="0.7194" style="stop-color:#8BBE51"/>
	<stop  offset="1" style="stop-color:#5CB75A"/>
</linearGradient>
<circle fill="url(#SVGID_1_)" cx="30.283" cy="30.161" r="29.839"/>
<path fill="#FFFFFF" d="M46.859,40.04l2.224,1.836l-2.528,3.025l-2.156-1.78l-1.935,2.421c-1.101,1.378-2.57,1.135-3.41,0.44
	c-0.841-0.694-0.751-1.589,0.351-2.965l1.935-2.423l-0.622-0.514l-2.71,3.391c-1.36,1.703-3.145,2.456-4.819,1.073
	c-1.674-1.383-1.393-3.377-0.033-5.079l2.709-3.392L23.737,26.057l-2.71,3.391c-1.361,1.702-3.221,2.392-4.896,1.01
	c-1.675-1.382-1.354-3.345,0.007-5.047l2.709-3.391l-0.589-0.487l-1.873,2.345c-1.101,1.378-2.148,1.867-2.989,1.173
	c-0.839-0.693-1.247-2.384-0.147-3.762l1.873-2.345l-2.074-1.713l2.528-3.024l2.006,1.656l1.284-1.608
	c1.1-1.377,2.744-1.233,3.584-0.539c0.841,0.694,0.652,1.751-0.449,3.129l-1.284,1.608l0.59,0.487l2.055-2.571
	c1.36-1.703,3.215-2.462,4.889-1.079c1.675,1.383,1.361,3.415,0.001,5.116l-2.056,2.572l12.13,10.016l2.054-2.571
	c1.36-1.703,3.252-2.431,4.927-1.048c1.675,1.383,1.286,3.353-0.075,5.054l-2.055,2.573l0.621,0.512l1.408-1.76
	c1.101-1.378,2.062-1.798,2.902-1.103c0.84,0.694,1.259,2.252,0.158,3.629L46.859,40.04z M46.859,40.04"/>
<rect x="13.672" y="14.177" fill="none" width="34.32" height="31.386"/>
</svg>
