<?xml version="1.0" standalone="no"?><!DOCTYPE svg PUBLIC "-//W3C//DTD SVG 1.1//EN" "http://www.w3.org/Graphics/SVG/1.1/DTD/svg11.dtd"><svg class="icon" width="200px" height="200.00px" viewBox="0 0 1024 1024" version="1.1" xmlns="http://www.w3.org/2000/svg"><path fill="#333333" d="M965.632 403.968c-2.048-2.048-207.872-182.784-268.8-241.664-73.216-71.68-135.68-86.528-174.592-86.528h-20.992c-38.912 0-101.376 14.848-174.592 86.528-60.416 59.392-266.24 240.128-268.288 241.664-8.704 7.68-9.216 20.48-2.048 29.184 7.68 8.704 20.48 9.216 29.184 2.048 2.048-2.048 15.872-13.824 36.352-32.256v412.16c0 73.216 60.928 133.12 135.68 133.12h508.928c74.752 0 135.68-59.904 135.68-133.12V402.944c20.48 17.92 34.304 30.208 36.352 32.256 4.096 3.584 8.704 5.12 13.312 5.12 5.632 0 11.264-2.56 15.36-7.168 8.192-8.704 7.168-21.504-1.536-29.184z m-302.08 503.296H361.984v-253.952c0-17.408 14.848-31.744 32.768-31.744h235.52c17.92 0 32.768 14.336 32.768 31.744v253.952z m197.632-540.16v448c0 50.688-42.496 92.16-94.72 92.16h-61.952v-253.952c0-39.936-33.28-72.704-73.728-72.704h-235.52c-40.96 0-73.728 32.768-73.728 72.704v253.952H257.536c-52.224 0-94.72-41.472-94.72-92.16V367.104v-0.512c66.048-58.368 155.136-138.24 193.024-175.104C422.4 126.464 476.16 116.736 501.76 116.736h20.992c25.6 0 78.848 9.728 145.92 74.752 37.376 36.864 126.976 116.736 192.512 175.616z"  /></svg>