<?xml version="1.0" encoding="utf-8"?>
<!-- Generator: Adobe Illustrator 17.0.0, SVG Export Plug-In . SVG Version: 6.00 Build 0)  -->
<!DOCTYPE svg PUBLIC "-//W3C//DTD SVG 1.1//EN" "http://www.w3.org/Graphics/SVG/1.1/DTD/svg11.dtd">
<svg version="1.1" id="图层_1" xmlns="http://www.w3.org/2000/svg" xmlns:xlink="http://www.w3.org/1999/xlink" x="0px" y="0px"
	 width="60px" height="60px" viewBox="0 0 60 60" enable-background="new 0 0 60 60" xml:space="preserve">
<linearGradient id="SVGID_1_" gradientUnits="userSpaceOnUse" x1="-61.3333" y1="-399.6667" x2="-0.709" y2="-399.6667" gradientTransform="matrix(4.489700e-011 1 -1 4.489700e-011 -369.6667 61.3333)">
	<stop  offset="0" style="stop-color:#F39B31"/>
	<stop  offset="1" style="stop-color:#103D95"/>
</linearGradient>
<circle fill="url(#SVGID_1_)" cx="30" cy="29.917" r="29.917"/>
<rect x="11.702" y="11.591" fill="none" width="36.437" height="36.661"/>
<g>
	<path fill="#FFFFFF" d="M24.739,28.886h-6.457c-1.776,0-3.228-1.453-3.228-3.228v-6.457c0-1.776,1.453-3.228,3.228-3.228h6.457
		c1.776,0,3.228,1.453,3.228,3.228v6.457C27.967,27.434,26.514,28.886,24.739,28.886L24.739,28.886z M18.282,19.201v6.457h6.457
		v-6.457H18.282z M18.282,19.201"/>
	<path fill="#FFFFFF" d="M16.668,32.115h9.685c0.968,0,1.614,0.646,1.614,1.614v9.685c0,0.969-0.646,1.614-1.614,1.614h-9.685
		c-0.969,0-1.614-0.646-1.614-1.614v-9.685C15.054,32.76,15.699,32.115,16.668,32.115L16.668,32.115z M16.668,32.115"/>
	<path fill="#FFFFFF" d="M36.522,15.489c0.646-0.646,1.614-0.646,2.26,0l5.649,5.65c0.646,0.646,0.646,1.614,0,2.26l-5.649,5.65
		c-0.646,0.646-1.614,0.646-2.26,0l-5.649-5.488c-0.646-0.646-0.646-1.614,0-2.26L36.522,15.489z M36.522,15.489"/>
	<path fill="#FFFFFF" d="M40.88,45.028h-6.456c-1.776,0-3.228-1.453-3.228-3.228v-6.457c0-1.775,1.453-3.228,3.228-3.228h6.456
		c1.776,0,3.228,1.453,3.228,3.228V41.8C44.108,43.575,42.656,45.028,40.88,45.028L40.88,45.028z M34.424,35.343V41.8h6.456v-6.457
		H34.424z M34.424,35.343"/>
</g>
</svg>
