<?xml version="1.0" encoding="utf-8"?>
<!-- Generator: Adobe Illustrator 17.0.0, SVG Export Plug-In . SVG Version: 6.00 Build 0)  -->
<!DOCTYPE svg PUBLIC "-//W3C//DTD SVG 1.1//EN" "http://www.w3.org/Graphics/SVG/1.1/DTD/svg11.dtd">
<svg version="1.1" id="图层_1" xmlns="http://www.w3.org/2000/svg" xmlns:xlink="http://www.w3.org/1999/xlink" x="0px" y="0px"
	 width="115.377px" height="115.406px" viewBox="0 0 115.377 115.406" enable-background="new 0 0 115.377 115.406"
	 xml:space="preserve">
<g>
	<path fill="#202020" d="M82.209,41.523c0-14.101-11.284-25.385-25.385-25.385S31.44,27.423,31.44,41.523
		c0,9.581,5.077,17.769,12.971,21.995C33.716,67.76,26.675,77.062,24.432,88.903c-0.278,1.408,0.557,3.095,2.26,3.39h0.557
		c1.408,0,2.538-0.852,2.817-2.26c2.538-13.249,12.953-22.846,26.481-23.125h0.557C70.925,66.908,82.209,55.624,82.209,41.523
		L82.209,41.523z M37.09,41.523c0-10.989,8.745-19.735,19.735-19.735s19.735,8.745,19.735,19.735
		c0,10.711-8.745,19.456-19.456,19.735h-0.852C45.557,60.98,37.09,52.251,37.09,41.523z M77.167,67.187
		c-1.408-0.852-3.095-0.557-3.947,0.852c-0.852,1.408-0.557,3.095,0.852,3.947c6.485,4.504,10.989,10.711,12.414,18.048
		c0.278,1.408,1.408,2.26,2.817,2.26h0.557c1.408-0.278,2.538-1.687,2.26-3.39C90.416,80.157,85.061,72.542,77.167,67.187
		L77.167,67.187z"/>
	<circle fill="none" stroke="#202020" stroke-width="5" stroke-miterlimit="10" cx="57.739" cy="57.726" r="55.144"/>
</g>
</svg>
