<?xml version="1.0" encoding="utf-8"?>
<!-- Generator: Adobe Illustrator 17.0.0, SVG Export Plug-In . SVG Version: 6.00 Build 0)  -->
<!DOCTYPE svg PUBLIC "-//W3C//DTD SVG 1.1//EN" "http://www.w3.org/Graphics/SVG/1.1/DTD/svg11.dtd">
<svg version="1.1" id="图层_1" xmlns="http://www.w3.org/2000/svg" xmlns:xlink="http://www.w3.org/1999/xlink" x="0px" y="0px"
	 width="60px" height="60px" viewBox="0 0 60 60" enable-background="new 0 0 60 60" xml:space="preserve">
<path fill="#E84F47" d="M42.543,23.864c0,10.16-8.236,18.396-18.396,18.396S5.752,34.023,5.752,23.864S13.988,5.468,24.148,5.468
	S42.543,13.704,42.543,23.864z M24.148,8.886c-8.272,0-14.978,6.706-14.978,14.978s6.706,14.978,14.978,14.978
	s14.978-6.706,14.978-14.978S32.42,8.886,24.148,8.886z"/>
<path fill="#E84F47" d="M48.146,47.687c-0.886,0.886-2.204,1.004-2.944,0.264L35.078,37.827c-0.74-0.74-0.622-2.058,0.264-2.944l0,0
	c0.886-0.886,2.204-1.004,2.944-0.264L48.41,44.744C49.15,45.484,49.032,46.802,48.146,47.687L48.146,47.687z"/>
</svg>
