<?xml version="1.0" encoding="utf-8"?>
<!-- Generator: Adobe Illustrator 17.0.0, SVG Export Plug-In . SVG Version: 6.00 Build 0)  -->
<!DOCTYPE svg PUBLIC "-//W3C//DTD SVG 1.1//EN" "http://www.w3.org/Graphics/SVG/1.1/DTD/svg11.dtd">
<svg version="1.1" id="图层_1" xmlns="http://www.w3.org/2000/svg" xmlns:xlink="http://www.w3.org/1999/xlink" x="0px" y="0px"
	 width="115.287px" height="115.287px" viewBox="0 0 115.287 115.287" enable-background="new 0 0 115.287 115.287"
	 xml:space="preserve">
<g>
	<path fill="#202020" d="M57.644,115.287C25.859,115.287,0,89.428,0,57.644S25.859,0,57.644,0s57.644,25.859,57.644,57.644
		S89.428,115.287,57.644,115.287z M57.644,5C28.616,5,5,28.616,5,57.644s23.616,52.644,52.644,52.644s52.644-23.616,52.644-52.644
		S86.671,5,57.644,5z"/>
	<circle fill="none" stroke="#202020" stroke-width="5" stroke-miterlimit="10" cx="57.644" cy="57.644" r="21.437"/>
	<path fill="#202020" d="M57.644,106.787C30.546,106.787,8.5,84.741,8.5,57.644S30.546,8.5,57.644,8.5s49.144,22.046,49.144,49.144
		S84.741,106.787,57.644,106.787z M57.644,12.5C32.751,12.5,12.5,32.751,12.5,57.644s20.251,45.144,45.144,45.144
		s45.144-20.251,45.144-45.144S82.536,12.5,57.644,12.5z"/>
	<rect x="79.081" y="55.144" fill="#202020" width="25.706" height="5"/>
	<rect x="10.5" y="55.144" fill="#202020" width="25.707" height="5"/>
	<rect x="55.144" y="79.775" fill="#202020" width="5" height="25.706"/>
	<rect x="55.144" y="10.5" fill="#202020" width="5" height="25.707"/>
	
		<rect x="20.552" y="30.924" transform="matrix(0.7071 0.7071 -0.7071 0.7071 33.4185 -13.8312)" fill="#202020" width="25.707" height="4.999"/>
	
		<rect x="69.312" y="79.685" transform="matrix(0.7071 0.7071 -0.7071 0.7071 82.1795 -34.0287)" fill="#202020" width="25.707" height="4.999"/>
	
		<rect x="78.899" y="20.986" transform="matrix(0.7071 0.7071 -0.7071 0.7071 47.7687 -47.6466)" fill="#202020" width="4.999" height="25.706"/>
	
		<rect x="30.729" y="69.156" transform="matrix(0.7071 0.7071 -0.7071 0.7071 67.7215 0.5235)" fill="#202020" width="4.999" height="25.706"/>
	<path fill="#202020" d="M82.531,36.206c0,0-5.705,4.989-2.594,12.46c3.111,7.471,11.438,6.509,11.438,6.509l-0.284,0.638
		l-9.34,1.267l-2.416-2.416l-5.068-12.315l6.629-5.922L82.531,36.206z"/>
	<path fill="#202020" d="M60.106,24.75c0,0-0.506,7.562,6.976,10.645c7.483,3.083,12.69-3.485,12.69-3.485l0.251,0.652l-5.708,7.5
		h-3.417l-12.292-5.125l0.5-8.875L60.106,24.75z"/>
	<path fill="#202020" d="M36.206,32.738c0,0,4.989,5.705,12.46,2.594s6.509-11.438,6.509-11.438l0.638,0.284l1.267,9.34
		l-2.416,2.416l-12.315,5.068l-5.922-6.629L36.206,32.738z"/>
	<path fill="#202020" d="M24.941,55.268c0,0,7.562,0.506,10.645-6.976c3.083-7.483-3.485-12.69-3.485-12.69l0.652-0.251l7.5,5.708
		v3.417l-5.125,12.292l-8.875-0.5L24.941,55.268z"/>
	<path fill="#202020" d="M32.887,79.081c0,0,5.705-4.989,2.594-12.46s-11.438-6.509-11.438-6.509l0.284-0.638l9.34-1.267
		l2.416,2.416l5.068,12.315l-6.629,5.922L32.887,79.081z"/>
	<path fill="#202020" d="M55.248,90.374c0,0,0.506-7.562-6.976-10.645s-12.69,3.485-12.69,3.485l-0.251-0.652l5.708-7.5h3.417
		l12.292,5.125l-0.5,8.875L55.248,90.374z"/>
	<path fill="#202020" d="M79.081,82.428c0,0-4.989-5.705-12.46-2.594s-6.509,11.438-6.509,11.438l-0.638-0.284l-1.267-9.34
		l2.416-2.416l12.315-5.068l5.922,6.629L79.081,82.428z"/>
	<path fill="#202020" d="M90.477,60.108c0,0-7.562-0.506-10.645,6.976s3.485,12.69,3.485,12.69l-0.652,0.251l-7.5-5.708V70.9
		l5.125-12.292l8.875,0.5L90.477,60.108z"/>
</g>
</svg>
