<?xml version="1.0" encoding="utf-8"?>
<!-- Generator: Adobe Illustrator 17.0.0, SVG Export Plug-In . SVG Version: 6.00 Build 0)  -->
<!DOCTYPE svg PUBLIC "-//W3C//DTD SVG 1.1//EN" "http://www.w3.org/Graphics/SVG/1.1/DTD/svg11.dtd">
<svg version="1.1" id="图层_1" xmlns="http://www.w3.org/2000/svg" xmlns:xlink="http://www.w3.org/1999/xlink" x="0px" y="0px"
	 width="115.693px" height="116.404px" viewBox="0 0 115.693 116.404" enable-background="new 0 0 115.693 116.404"
	 xml:space="preserve">
<path fill="none" stroke="#E84F47" stroke-width="5" stroke-miterlimit="10" d="M276.775,43.443
	c-0.131-0.003-0.263-0.004-0.395-0.004c-9.756,0-17.665,7.909-17.665,17.665s7.909,17.665,17.665,17.665
	c0.135,0,0.271-0.002,0.405-0.005"/>
<circle fill="#E84F47" cx="57.846" cy="58.557" r="57.846"/>
<path fill="#FFFFFF" d="M82.316,42.354c0-14.101-11.284-25.385-25.385-25.385S31.547,28.253,31.547,42.354
	c0,9.581,5.077,17.769,12.971,21.995c-10.694,4.242-17.735,13.544-19.979,25.385c-0.278,1.408,0.557,3.095,2.26,3.39h0.557
	c1.408,0,2.538-0.852,2.817-2.26c2.538-13.249,12.953-22.846,26.481-23.125h0.557C71.032,67.739,82.316,56.455,82.316,42.354
	L82.316,42.354z M37.197,42.354c0-10.989,8.745-19.735,19.735-19.735s19.735,8.745,19.735,19.735
	c0,10.711-8.745,19.456-19.456,19.735h-0.852C45.664,61.811,37.197,53.081,37.197,42.354z M77.274,68.018
	c-1.408-0.852-3.095-0.557-3.947,0.852c-0.852,1.408-0.557,3.095,0.852,3.947c6.485,4.504,10.989,10.711,12.414,18.048
	c0.278,1.408,1.408,2.26,2.817,2.26h0.557c1.408-0.278,2.538-1.687,2.26-3.39C90.523,80.988,85.168,73.373,77.274,68.018
	L77.274,68.018z"/>
</svg>
