<?xml version="1.0" encoding="utf-8"?>
<!-- Generator: Adobe Illustrator 17.0.0, SVG Export Plug-In . SVG Version: 6.00 Build 0)  -->
<!DOCTYPE svg PUBLIC "-//W3C//DTD SVG 1.1//EN" "http://www.w3.org/Graphics/SVG/1.1/DTD/svg11.dtd">
<svg version="1.1" id="图层_1" xmlns="http://www.w3.org/2000/svg" xmlns:xlink="http://www.w3.org/1999/xlink" x="0px" y="0px"
	 width="115.287px" height="115.287px" viewBox="0 0 115.287 115.287" enable-background="new 0 0 115.287 115.287"
	 xml:space="preserve">
<g>
	<circle fill="#E84F47" cx="57.644" cy="57.644" r="57.452"/>
	<circle fill="none" stroke="#FFFFFF" stroke-width="5" stroke-miterlimit="10" cx="57.681" cy="57.679" r="21.437"/>
	<path fill="#FFFFFF" d="M57.68,106.823c-27.098,0-49.144-22.046-49.144-49.145c0-27.098,22.046-49.144,49.144-49.144
		s49.144,22.046,49.144,49.144C106.824,84.777,84.778,106.823,57.68,106.823z M57.68,12.535c-24.892,0-45.144,20.251-45.144,45.144
		s20.251,45.145,45.144,45.145s45.144-20.252,45.144-45.145S82.573,12.535,57.68,12.535z"/>
	<rect x="79.118" y="55.179" fill="#FFFFFF" width="25.706" height="5"/>
	<rect x="10.537" y="55.179" fill="#FFFFFF" width="25.706" height="5"/>
	<rect x="55.181" y="79.81" fill="#FFFFFF" width="5" height="25.706"/>
	<rect x="55.181" y="10.535" fill="#FFFFFF" width="5" height="25.707"/>
	
		<rect x="20.589" y="30.959" transform="matrix(0.7071 0.7071 -0.7071 0.7071 33.4542 -13.8472)" fill="#FFFFFF" width="25.707" height="4.999"/>
	
		<rect x="69.349" y="79.72" transform="matrix(0.7071 0.7071 -0.7071 0.7071 82.2182 -34.0443)" fill="#FFFFFF" width="25.707" height="4.999"/>
	
		<rect x="78.936" y="21.021" transform="matrix(0.7071 0.7071 -0.7071 0.7071 47.8044 -47.6626)" fill="#FFFFFF" width="4.999" height="25.706"/>
	
		<rect x="30.766" y="69.191" transform="matrix(0.7071 0.7071 -0.7071 0.7071 67.7572 0.5076)" fill="#FFFFFF" width="4.999" height="25.706"/>
	<path fill="#FFFFFF" d="M82.568,36.242c0,0-5.705,4.989-2.594,12.46c3.111,7.471,11.438,6.509,11.438,6.509l-0.284,0.638
		l-9.34,1.267L79.372,54.7l-5.068-12.315l6.629-5.922L82.568,36.242z"/>
	<path fill="#FFFFFF" d="M60.143,24.785c0,0-0.506,7.562,6.976,10.645c7.483,3.083,12.69-3.485,12.69-3.485l0.251,0.652l-5.708,7.5
		h-3.417l-12.292-5.125l0.5-8.875L60.143,24.785z"/>
	<path fill="#FFFFFF" d="M36.243,32.773c0,0,4.989,5.705,12.46,2.594s6.509-11.438,6.509-11.438l0.638,0.284l1.267,9.34
		l-2.416,2.416l-12.315,5.068l-5.922-6.629L36.243,32.773z"/>
	<path fill="#FFFFFF" d="M24.978,55.304c0,0,7.562,0.506,10.645-6.976c3.083-7.483-3.485-12.69-3.485-12.69l0.652-0.251l7.5,5.708
		v3.417l-5.125,12.292l-8.875-0.5L24.978,55.304z"/>
	<path fill="#FFFFFF" d="M32.924,79.116c0,0,5.705-4.989,2.594-12.46s-11.438-6.509-11.438-6.509l0.284-0.638l9.34-1.267
		l2.416,2.416l5.068,12.315l-6.629,5.922L32.924,79.116z"/>
	<path fill="#FFFFFF" d="M90.514,60.143c0,0-7.562-0.506-10.645,6.976s3.485,12.69,3.485,12.69l-0.652,0.251l-7.5-5.708v-3.417
		l5.125-12.292l8.875,0.5L90.514,60.143z"/>
	<path fill="#FFFFFF" d="M55.285,90.409c0,0,0.506-7.562-6.976-10.645c-7.483-3.083-12.69,3.485-12.69,3.485l-0.251-0.652l5.708-7.5
		h3.417l12.292,5.125l-0.5,8.875L55.285,90.409z"/>
	<path fill="#FFFFFF" d="M79.118,82.463c0,0-4.989-5.705-12.46-2.594c-7.471,3.111-6.509,11.438-6.509,11.438l-0.638-0.284
		l-1.267-9.34l2.416-2.416L72.975,74.2l5.922,6.629L79.118,82.463z"/>
</g>
</svg>
